<svg xmlns="http://www.w3.org/2000/svg" width="1923" height="242" viewBox="0 0 1923 242">
<defs><rect width="6" height="80" id="s"/><rect width="11" height="80" id="m"/><rect width="16" height="80" id="l"/></defs>
<g fill="white">
<g fill-rule="evenodd">
  <path d="M27 17h155l-13 35h-103l32 47h53l-13 35h-58l-63-91zM192 17h133l-46 117h-133zM216 52h58l-18 47h-58zM335 17h119l-28 74h-16l-14-19 7-20h-31l33 47h71l-14 36h-75l-39-55-21 54h-37zM464 17h141l-13 35h-50l-31 82h-37l31-82h-54zM614 17h144l-13 35h-94l4 6h88l-13 35h-93l-34-48zM594 64h15l24 35h94l-14 36h-97l-31-45zM769 17h38l-9 24 12 17h39l15-12 12-29h37l-19 51-21 16 15 21-12 31h-37l10-26-12-17h-46l-18 14-11 29h-38l19-50 28-22-13-18z"
  />
  <path d="M991 17h37l-45 119h-36zM1038 17h146l-45 117h-37l31-82h-16l-17 45h-38l18-45h-19l-31 82h-37zM1194 17h119l-30 78-28 19h-62l-8 20h-37zM1217 52h45l-8 20 5 6-52 0zM1321 17h38l-32 82h103l-13 35h-141zM1471 17h142l-45 118h-37l31-83h-67l-15 41 39-28 25 25-58 44h-60zM1622 17h133l-45 117h-37l31-82h-58l-31 82h-38zM1765 17h141l-13 35h-50l-31 82h-37l31-82h-54z"
  />
</g>
<g transform="translate(0 145)">
  <use href="#s" x="79"/><use href="#l" x="102"/><use href="#m" x="124"/><use href="#s" x="141"/><use href="#s" x="164"/><use href="#m" x="176"/><use href="#s" x="204"/><use href="#m" x="227"/><use href="#s" x="244"/><use href="#l" x="267"/><use href="#m" x="289"/><use href="#s" x="306"/><use href="#m" x="329"/><use href="#l" x="347"/><use href="#s" x="381"/><use href="#m" x="392"/><use href="#s" x="421"/><use href="#s" x="432"/><use href="#s" x="455"/><use href="#m" x="478"/><use href="#s" x="494"/><use href="#m" x="518"/><use href="#l" x="535"/><use href="#s" x="557"/><use href="#l" x="581"/><use href="#m" x="603"/><use href="#s" x="620"/><use href="#m" x="643"/><use href="#l" x="660"/><use href="#s" x="683"/><use href="#m" x="705"/><use href="#l" x="723"/><use href="#s" x="757"/><use href="#s" x="768"/><use href="#m" x="791"/><use href="#s" x="808"/><use href="#s" x="831"/><use href="#l" x="843"/><use href="#m" x="865"/>
</g>
<path d="M944 148l11 0 0 41-11 0zM994 148l12 0c1 46 2 67-43 77l-8-10c24-4 39-12 39-38zM1057 144l13 8 11 10-10 8-21-18zM1117 156l7 8c-14 37-57 53-70 56l-7-10c32-11 57-23 70-54zM1175 149h55c-3 46-28 62-55 76l-9-8c19-9 47-24 52-59h-34c-6 8-11 14-21 21l-8-6c9-6 17-16 20-24M1282 144h11v29l6-5c14 3 26 8 39 15l-9 8c-11-7-23-12-36-16v49h-11zM1325 146l3-1 4 11-3 2zM1333 145l3-1 5 10-3 2zM1377 177h8v9h-8zM1422 151h76c-3 32-31 45-39 52l-8-8c16-8 35-27 31-34h-60zM1441 184c19 14 25 21 34 36l-9 4c-10-15-18-25-32-34zM1600 145l10 7c-23 22-43 34-74 47l-8-9c23-9 56-27 72-45zM1578 172v52h-11v-45zM1649 144c11 6 14 9 24 18l-9 9c-7-7-13-13-21-18zM1710 156l6 8c-10 33-48 49-69 57l-7-11c31-10 57-24 70-54zM1753 147h59c1 36-28 60-54 77l-10-8c28-13 53-45 50-59h-45zM1791 189c16 9 26 19 35 31l-14 4c-8-13-22-24-27-27zM1814 145l4-1 4 13-4 1zM1820 143l4-2 5 12-4 2z"/>
</g>
</svg>